Coordinates
version=1
nRows=14
nColumns=42
inDegrees=yes

Units are S.I. units (second, meters, Newtons, ...)
If the header above contains a line with 'inDegrees', this indicates whether rotational values are in degrees (yes) or radians (no).

endheader
time	pelvis_tilt	pelvis_list	pelvis_rotation	pelvis_tx	pelvis_ty	pelvis_tz	hip_flexion_r	hip_adduction_r	hip_rotation_r	knee_angle_r	knee_adduction_r	knee_angle_r_beta	ankle_angle_r	subtalar_angle_r	mtp_angle_r	hip_flexion_l	hip_adduction_l	hip_rotation_l	knee_angle_l	knee_adduction_l	knee_angle_l_beta	ankle_angle_l	subtalar_angle_l	mtp_angle_l	lumbar_extension	lumbar_bending	lumbar_rotation	arm_flex_r	arm_add_r	arm_rot_r	elbow_flex_r	pro_sup_r	wrist_flex_r	wrist_dev_r	arm_flex_l	arm_add_l	arm_rot_l	elbow_flex_l	pro_sup_l	wrist_flex_l	wrist_dev_l
      8.50000000	      7.00148227	     -0.82884042	     -3.90628376	      0.97756977	      0.93870881	     -0.14546515	     11.45844997	     -9.39347601	    -26.35080186	     27.79655539	      4.18046010	      0.48514141	      6.94348399	     17.83172955	     -7.50024352	     -3.94423034	     -0.88026967	    -20.53455172	     26.35886116	      1.23667554	      0.46004891	     22.31211568	      2.73225392	     -7.50024352	    -18.45417989	      0.06645690	     -3.64834218	      6.28685028	    -10.59013111	      5.47348376	     41.34793385	     90.00000001	      0.00000000	      0.00000000	    -12.18884405	    -11.24562606	     -0.72653633	     50.18837941	     90.00000001	      0.00000000	      0.00000000
      8.51000000	      6.97622568	     -0.62079175	     -3.62169298	      0.98078138	      0.93809176	     -0.14495617	     11.45490599	     -9.45602944	    -26.15367961	     28.11520757	      4.01758619	      0.49070294	      7.49768054	     16.95865561	     -7.50024046	     -4.10655106	     -0.66987052	    -20.27305650	     26.29950315	      1.17194306	      0.45901292	     22.53060985	      2.91362559	     -7.50024046	    -18.32045405	      0.03174361	     -3.75855714	      6.15260512	    -10.55618310	      5.18096776	     41.06942805	     90.00000001	      0.00000000	      0.00000000	    -11.98091052	    -11.28967043	     -0.55171490	     50.09149689	     90.00000001	      0.00000000	      0.00000000
      8.52000000	      6.95785536	     -0.49934723	     -3.37582116	      0.98408233	      0.93757860	     -0.14432245	     11.36813472	     -9.41572379	    -25.97631183	     28.23346593	      3.85410167	      0.49276694	      7.57121196	     16.85509815	     -7.50024008	     -4.26954853	     -0.60890479	    -20.20966228	     26.33634714	      1.10743082	      0.45965597	     22.55856835	      2.93095209	     -7.50024008	    -18.20051618	      0.06626559	     -3.81128242	      5.97260903	    -10.63148848	      5.13655532	     40.94059667	     90.00000001	      0.00000000	      0.00000000	    -11.83628223	    -11.26142829	     -0.53957267	     50.12958469	     90.00000001	      0.00000000	      0.00000000
      8.53000000	      7.03684357	     -0.39218141	     -3.14790041	      0.98716418	      0.93723434	     -0.14365199	     11.30927728	     -9.31388308	    -25.82182215	     28.59019709	      3.47614990	      0.49899307	      8.14706123	     16.27815063	     -7.50023888	     -4.52927473	     -0.43971027	    -19.88188702	     26.30075470	      0.90541810	      0.45903477	     22.73816588	      3.02500139	     -7.50023888	    -18.22286707	      0.11853582	     -3.82278327	      5.92597911	    -10.68286184	      4.99473244	     40.71989784	     90.00000001	      0.00000000	      0.00000000	    -11.55166947	    -11.23036125	     -0.48695529	     50.04287006	     90.00000001	      0.00000000	      0.00000000
      8.54000000	      6.85468506	     -0.07782254	     -2.98742513	      0.99036537	      0.93646416	     -0.14292103	     11.57813437	     -9.54430722	    -24.99688372	     29.08751298	      3.62285363	      0.50767287	      8.72223559	     14.26407088	     -7.50022855	     -4.57337642	     -0.08970983	    -19.59982396	     26.12093472	      0.88097598	      0.45589631	     22.88255478	      2.93972710	     -7.50022855	    -17.90938215	     -0.05777841	     -3.86461879	      5.87200980	    -10.49295161	      4.22076767	     40.27659935	     90.00000001	      0.00000000	      0.00000000	    -11.36136122	    -11.24472121	     -0.34511770	     49.89048503	     90.00000001	      0.00000000	      0.00000000
      8.55000000	      6.86343302	     -0.02329898	     -2.74216070	      0.99367977	      0.93612790	     -0.14224202	     11.49423888	     -9.44864979	    -24.81494407	     29.29153890	      3.41614952	      0.51123380	      8.89810838	     14.14807763	     -7.50022797	     -4.79492414	     -0.07623724	    -19.47570302	     26.11677443	      0.79424111	      0.45582370	     22.93307396	      2.96395100	     -7.50022797	    -17.83769473	      0.06918285	     -3.91549092	      5.74556154	    -10.59152584	      4.19467424	     40.15307424	     90.00000001	      0.00000000	      0.00000000	    -11.19735802	    -11.18511525	     -0.34116282	     49.90112915	     90.00000001	      0.00000000	      0.00000000
      8.56000000	      6.89865466	      0.02991305	     -2.55502229	      0.99701915	      0.93583529	     -0.14136406	     11.47787449	     -9.35865773	    -24.72070456	     29.74497502	      3.09574431	      0.51914775	      9.64491798	     13.57423183	     -7.50022619	     -5.13765140	     -0.05239857	    -19.19599773	     25.92411204	      0.79172254	      0.45246111	     23.15665943	      3.05958698	     -7.50022619	    -17.79249398	      0.16405320	     -3.94113148	      5.74148431	    -10.64611698	      4.10900795	     39.95198106	     90.00000001	      0.00000000	      0.00000000	    -10.99344006	    -11.10447659	     -0.35331340	     49.75124280	     90.00000001	      0.00000000	      0.00000000
      8.57000000	      6.84428779	      0.11433822	     -2.33806321	      1.00040227	      0.93546573	     -0.14058623	     11.41059766	     -9.33679636	    -24.55580433	     29.88145816	      2.98092296	      0.52152983	      9.71444702	     13.52091607	     -7.50022594	     -5.30241721	     -0.04699800	    -19.16600963	     25.91420226	      0.76178239	      0.45228815	     23.17844932	      3.07046083	     -7.50022594	    -17.64889044	      0.24256181	     -4.01022769	      5.63667062	    -10.72373003	      4.07682841	     39.86604106	     90.00000001	      0.00000000	      0.00000000	    -10.89114744	    -11.04207160	     -0.34824585	     49.78444533	     90.00000001	      0.00000000	      0.00000000
      8.58000000	      6.86919445	      0.08494899	     -2.19740150	      1.00360389	      0.93519427	     -0.13968649	     11.45198471	     -9.22087778	    -24.36784276	     30.45331503	      2.79111037	      0.53151062	     10.34667084	     13.04828391	     -7.50022475	     -5.64782266	     -0.07025238	    -18.89752268	     25.68238701	      0.65855661	      0.44824221	     23.35186459	      3.19121230	     -7.50022475	    -17.62897227	      0.44064940	     -4.00082938	      5.69459451	    -10.80082589	      3.95750464	     39.66343727	     90.00000001	      0.00000000	      0.00000000	    -10.70072042	    -10.93235832	     -0.37495225	     49.71906605	     90.00000001	      0.00000000	      0.00000000
      8.59000000	      6.79677731	      0.17585919	     -2.00909291	      1.00697392	      0.93484706	     -0.13880486	     11.44318567	     -9.23510945	    -24.22641466	     30.69800458	      2.67543646	      0.53578125	     10.60796639	     12.83505044	     -7.50022414	     -5.85257322	     -0.07769563	    -18.86426073	     25.57256798	      0.68600337	      0.44632551	     23.42934840	      3.24105916	     -7.50022414	    -17.46807951	      0.50516024	     -4.05987062	      5.64531877	    -10.86113825	      3.88232637	     39.54066201	     90.00000001	      0.00000000	      0.00000000	    -10.60320454	    -10.86055067	     -0.39143438	     49.72057293	     90.00000001	      0.00000000	      0.00000000
      8.60000000	      6.72925334	      0.24983686	     -1.94975898	      1.01025455	      0.93444473	     -0.13770075	     11.57489482	     -9.26845808	    -24.08232300	     31.29417674	      2.56159518	      0.54618642	     11.36765074	     12.21303055	     -7.50022230	     -6.16097815	     -0.04513754	    -18.72038289	     25.23920406	      0.75795708	      0.44050721	     23.63831248	      3.44413344	     -7.50022230	    -17.33741980	      0.56251479	     -4.04522506	      5.73196400	    -10.86119119	      3.67421302	     39.28191023	     90.00000001	      0.00000000	      0.00000000	    -10.50480690	    -10.75764172	     -0.47948024	     49.66566508	     90.00000001	      0.00000000	      0.00000000
      8.61000000	      6.55225409	      0.45194039	     -1.88544386	      1.01343689	      0.93390628	     -0.13664936	     11.77936029	     -9.46456512	    -23.66510748	     31.76456089	      2.65915303	      0.55439617	     11.77148770	     11.57739348	     -7.50021692	     -6.26032159	      0.15200554	    -18.72738518	     25.02632674	      0.65962210	      0.43679180	     23.74342662	      3.74814199	     -7.50021692	    -17.08251021	      0.47186094	     -4.08323394	      5.83829718	    -10.77428203	      3.21256533	     38.96190041	     90.00000001	      0.00000000	      0.00000000	    -10.45376702	    -10.65277453	     -0.64346660	     49.72703616	     90.00000001	      0.00000000	      0.00000000
      8.62000000	      6.46171502	      0.41121993	     -1.79173209	      1.01667283	      0.93356773	     -0.13557837	     11.78218588	     -9.37951125	    -23.68515602	     32.06061666	      2.60534898	      0.55956332	     12.00792419	     11.43809435	     -7.50021570	     -6.46731514	      0.00622239	    -18.77539814	     24.87749937	      0.67065338	      0.43419427	     23.81412661	      3.79724156	     -7.50021570	    -16.94564898	      0.66731076	     -4.09206649	      5.89949898	    -10.85550053	      3.13035296	     38.87894773	     90.00000001	      0.00000000	      0.00000000	    -10.39533764	    -10.55882927	     -0.63553070	     49.76345261	     90.00000001	      0.00000000	      0.00000000
      8.63000000	      6.35269622	      0.38884819	     -1.71427858	      1.01986623	      0.93322519	     -0.13444767	     11.79103210	     -9.31626583	    -23.71804275	     32.32442450	      2.55278839	      0.56416764	     12.24759277	     11.35510876	     -7.50021485	     -6.65393310	     -0.11738838	    -18.81432046	     24.72650126	      0.67348898	      0.43155886	     23.88233377	      3.86644020	     -7.50021485	    -16.79112722	      0.83035447	     -4.12556284	      5.98206446	    -10.92969718	      3.05716714	     38.80986064	     90.00000001	      0.00000000	      0.00000000	    -10.34971682	    -10.47225068	     -0.62833670	     49.81766833	     90.00000001	      0.00000000	      0.00000000
